<svg id="Layer_1" data-name="Layer 1" xmlns="http://www.w3.org/2000/svg" viewBox="0 0 37 37">
  <defs>
    <style>
      .cls-1 {
        fill: #cf202a;
        fill-rule: evenodd;
      }

      .cls-2 {
        fill: #fff;
      }
    </style>
  </defs>
  <g>
    <path class="cls-1" d="M36,18.5c-.12,6.28-.65,11.3-3.49,14s-7.73,3.37-14,3.49c-6.28-.12-11.3-.65-14-3.49S1.12,24.78,1,18.5c.12-6.28.65-11.3,3.49-14S12.22,1.12,18.5,1c6.28.12,11.3.65,14,3.49S35.88,12.22,36,18.5Z"/>
    <g>
      <path class="cls-2" d="M13.7,17.66l0,4.09a1,1,0,0,0,1.09,1,1,1,0,0,0,.86-1v-5.8a1.48,1.48,0,0,0-1.48-1.48h0a1.48,1.48,0,0,0-1.38.92l-1.7,4.31a.07.07,0,0,1-.07,0,.05.05,0,0,1-.06,0L9.23,15.37a1.48,1.48,0,0,0-1.37-.92h0a1.48,1.48,0,0,0-1.48,1.48v5.8a1,1,0,0,0,.86,1,1,1,0,0,0,1.08-1V17.61l1.8,4.56a1.06,1.06,0,0,0,.91.57,1,1,0,0,0,.93-.65Z"/>
      <path class="cls-2" d="M30.26,15.82a2.62,2.62,0,0,0-1.05-1,3.37,3.37,0,0,0-1.6-.36H25.44a1.25,1.25,0,0,0-1.25,1.25v6a1,1,0,0,0,1,1h0a1,1,0,0,0,1-1V20.15h1.35a3.55,3.55,0,0,0,1.65-.36,2.48,2.48,0,0,0,1.06-1,2.87,2.87,0,0,0,.37-1.49A3,3,0,0,0,30.26,15.82ZM28.39,18a1,1,0,0,1-.46.44,1.58,1.58,0,0,1-.76.16h-1V16.06h1a1.61,1.61,0,0,1,.76.16,1,1,0,0,1,.46.43,1.46,1.46,0,0,1,0,1.33Z"/>
      <path class="cls-2" d="M22.1,20.88H19.83l.76-.66A13.7,13.7,0,0,0,22,18.84a3.91,3.91,0,0,0,.69-1.05,2.45,2.45,0,0,0,.2-.95,2.39,2.39,0,0,0-.39-1.36,2.67,2.67,0,0,0-1.1-.9,4.13,4.13,0,0,0-1.68-.32,3.81,3.81,0,0,0-1.64.34,3.1,3.1,0,0,0-.58.39,2.38,2.38,0,0,0-.63.85.89.89,0,0,0-.07.4.61.61,0,0,0,0,.14,1.11,1.11,0,0,0,.13.36.92.92,0,0,0,.22.26.94.94,0,0,0,.53.23h.14a.92.92,0,0,0,.29,0,1.11,1.11,0,0,0,.27-.12,1.37,1.37,0,0,0,.22-.2,1.14,1.14,0,0,0,.15-.23,1.77,1.77,0,0,1,.19-.33.88.88,0,0,1,.24-.19,1.23,1.23,0,0,1,1.06,0,.89.89,0,0,1,.37.35,1.09,1.09,0,0,1,.13.55,1.33,1.33,0,0,1-.11.54,1.76,1.76,0,0,1-.34.46,4.85,4.85,0,0,1-.51.49l-2.65,2.26a1,1,0,0,0-.36.79v.12a1,1,0,0,0,1,1H22.1a.92.92,0,1,0,0-1.84Z"/>
    </g>
  </g>
</svg>
